<?xml version="1.0"?><svg xmlns="http://www.w3.org/2000/svg" viewBox="0 0 100 100"><g><path d="M50 30c-11.046 0-20 8.954-20 20s8.954 20 20 20" fill="none" stroke="#e0e0e0" stroke-width="6" stroke-miterlimit="10"/><path d="M50 70c11.046 0 20-8.954 20-20s-8.954-20-20-20" fill="none" stroke="#abbd81" stroke-width="6" stroke-linecap="round" stroke-miterlimit="10"/></g><g><path d="M50 20c-16.569 0-30 13.431-30 30 0 16.569 13.431 30 30 30 11.226 0 21.012-6.166 26.156-15.296" fill="none" stroke="#e0e0e0" stroke-width="6" stroke-miterlimit="10"/><path d="M76.156 64.704A29.875 29.875 0 0 0 80 50c0-16.569-13.431-30-30-30" fill="none" stroke="#f8b26a" stroke-width="6" stroke-linecap="round" stroke-miterlimit="10"/></g><g><path d="M50 10c-22.091 0-40 17.909-40 40 0 .561.012 1.119.034 1.674" fill="none" stroke="#e0e0e0" stroke-width="6" stroke-miterlimit="10"/><path d="M10.034 51.674C10.912 72.989 28.47 90 50 90c22.091 0 40-17.909 40-40S72.091 10 50 10" fill="none" stroke="#e15b64" stroke-width="6" stroke-linecap="round" stroke-miterlimit="10"/></g><metadata xmlns:d="https://loading.io/stock/">
<d:name>radial bar</d:name>
<d:tags>radial bar,circle,progress,process,ring,circular,curve,infographics</d:tags>
<d:license>by</d:license>
<d:slug>dz9zt2</d:slug>
</metadata></svg>